REM DIRINDEX 1\2,1\3
REM DIRNAME cjc039,folder01,folder02
TITLE ""
FILE "1361-1380.mp3" MP3
  TRACK 01 AUDIO
    TITLE "0:"
    INDEX 01 00:00:00
  TRACK 02 AUDIO
    TITLE "2:cjc039_1721"
    INDEX 01 00:00:25
  TRACK 03 AUDIO
    TITLE "0:"
    INDEX 01 00:03:29
  TRACK 04 AUDIO
    TITLE "3:cjc039_1722"
    INDEX 01 00:04:03
  TRACK 05 AUDIO
    TITLE "0:"
    INDEX 01 00:08:15
  TRACK 06 AUDIO
    TITLE "2:cjc039_1723"
    INDEX 01 00:09:61
  TRACK 07 AUDIO
    TITLE "0:"
    INDEX 01 00:10:68
  TRACK 08 AUDIO
    TITLE "3:cjc039_1724"
    INDEX 01 00:11:48
  TRACK 09 AUDIO
    TITLE "0:"
    INDEX 01 00:15:23
  TRACK 10 AUDIO
    TITLE "2:cjc039_1725"
    INDEX 01 00:17:00
  TRACK 11 AUDIO
    TITLE "0:"
    INDEX 01 00:18:05
  TRACK 12 AUDIO
    TITLE "3:cjc039_1726"
    INDEX 01 00:18:54
  TRACK 13 AUDIO
    TITLE "0:"
    INDEX 01 00:22:32
  TRACK 14 AUDIO
    TITLE "2:cjc039_1727"
    INDEX 01 00:24:06
  TRACK 15 AUDIO
    TITLE "0:"
    INDEX 01 00:25:45
  TRACK 16 AUDIO
    TITLE "3:cjc039_1728"
    INDEX 01 00:26:22
  TRACK 17 AUDIO
    TITLE "0:"
    INDEX 01 00:30:20
  TRACK 18 AUDIO
    TITLE "2:cjc039_1729"
    INDEX 01 00:31:71
  TRACK 19 AUDIO
    TITLE "0:"
    INDEX 01 00:33:09
  TRACK 20 AUDIO
    TITLE "3:cjc039_1730"
    INDEX 01 00:33:64
  TRACK 21 AUDIO
    TITLE "0:"
    INDEX 01 00:37:14
  TRACK 22 AUDIO
    TITLE "2:cjc039_1731"
    INDEX 01 00:38:67
  TRACK 23 AUDIO
    TITLE "0:"
    INDEX 01 00:40:17
  TRACK 24 AUDIO
    TITLE "3:cjc039_1732"
    INDEX 01 00:40:70
  TRACK 25 AUDIO
    TITLE "0:"
    INDEX 01 00:43:74
  TRACK 26 AUDIO
    TITLE "2:cjc039_1733"
    INDEX 01 00:45:51
  TRACK 27 AUDIO
    TITLE "0:"
    INDEX 01 00:46:39
  TRACK 28 AUDIO
    TITLE "3:cjc039_1734"
    INDEX 01 00:47:17
  TRACK 29 AUDIO
    TITLE "0:"
    INDEX 01 00:50:35
  TRACK 30 AUDIO
    TITLE "2:cjc039_1735"
    INDEX 01 00:52:12
  TRACK 31 AUDIO
    TITLE "0:"
    INDEX 01 00:53:35
  TRACK 32 AUDIO
    TITLE "3:cjc039_1736"
    INDEX 01 00:54:15
  TRACK 33 AUDIO
    TITLE "0:"
    INDEX 01 00:57:27
  TRACK 34 AUDIO
    TITLE "2:cjc039_1737"
    INDEX 01 00:59:06
  TRACK 35 AUDIO
    TITLE "0:"
    INDEX 01 01:00:00
  TRACK 36 AUDIO
    TITLE "3:cjc039_1738"
    INDEX 01 01:00:51
  TRACK 37 AUDIO
    TITLE "0:"
    INDEX 01 01:03:39
  TRACK 38 AUDIO
    TITLE "2:cjc039_1739"
    INDEX 01 01:05:19
  TRACK 39 AUDIO
    TITLE "0:"
    INDEX 01 01:06:38
  TRACK 40 AUDIO
    TITLE "3:cjc039_1740"
    INDEX 01 01:07:14
  TRACK 41 AUDIO
    TITLE "0:"
    INDEX 01 01:10:39
  TRACK 42 AUDIO
    TITLE "2:cjc039_1741"
    INDEX 01 01:12:19
  TRACK 43 AUDIO
    TITLE "0:"
    INDEX 01 01:13:20
  TRACK 44 AUDIO
    TITLE "3:cjc039_1742"
    INDEX 01 01:14:02
  TRACK 45 AUDIO
    TITLE "0:"
    INDEX 01 01:16:50
  TRACK 46 AUDIO
    TITLE "2:cjc039_1743"
    INDEX 01 01:18:27
  TRACK 47 AUDIO
    TITLE "0:"
    INDEX 01 01:19:32
  TRACK 48 AUDIO
    TITLE "3:cjc039_1744"
    INDEX 01 01:20:10
  TRACK 49 AUDIO
    TITLE "0:"
    INDEX 01 01:23:50
  TRACK 50 AUDIO
    TITLE "2:cjc039_1745"
    INDEX 01 01:25:27
  TRACK 51 AUDIO
    TITLE "0:"
    INDEX 01 01:26:32
  TRACK 52 AUDIO
    TITLE "3:cjc039_1746"
    INDEX 01 01:27:08
  TRACK 53 AUDIO
    TITLE "0:"
    INDEX 01 01:30:38
  TRACK 54 AUDIO
    TITLE "2:cjc039_1747"
    INDEX 01 01:32:15
  TRACK 55 AUDIO
    TITLE "0:"
    INDEX 01 01:33:36
  TRACK 56 AUDIO
    TITLE "3:cjc039_1748"
    INDEX 01 01:34:14
  TRACK 57 AUDIO
    TITLE "0:"
    INDEX 01 01:37:48
  TRACK 58 AUDIO
    TITLE "2:cjc039_1749"
    INDEX 01 01:39:23
  TRACK 59 AUDIO
    TITLE "0:"
    INDEX 01 01:40:29
  TRACK 60 AUDIO
    TITLE "3:cjc039_1750"
    INDEX 01 01:41:09
  TRACK 61 AUDIO
    TITLE "0:"
    INDEX 01 01:43:68
  TRACK 62 AUDIO
    TITLE "2:cjc039_1751"
    INDEX 01 01:45:45
  TRACK 63 AUDIO
    TITLE "0:"
    INDEX 01 01:46:53
  TRACK 64 AUDIO
    TITLE "3:cjc039_1752"
    INDEX 01 01:47:29
  TRACK 65 AUDIO
    TITLE "0:"
    INDEX 01 01:50:68
  TRACK 66 AUDIO
    TITLE "2:cjc039_1753"
    INDEX 01 01:52:44
  TRACK 67 AUDIO
    TITLE "0:"
    INDEX 01 01:53:53
  TRACK 68 AUDIO
    TITLE "3:cjc039_1754"
    INDEX 01 01:54:31
  TRACK 69 AUDIO
    TITLE "0:"
    INDEX 01 01:58:27
  TRACK 70 AUDIO
    TITLE "2:cjc039_1755"
    INDEX 01 01:59:73
  TRACK 71 AUDIO
    TITLE "0:"
    INDEX 01 02:01:17
  TRACK 72 AUDIO
    TITLE "3:cjc039_1756"
    INDEX 01 02:01:72
  TRACK 73 AUDIO
    TITLE "0:"
    INDEX 01 02:05:34
  TRACK 74 AUDIO
    TITLE "2:cjc039_1757"
    INDEX 01 02:07:06
  TRACK 75 AUDIO
    TITLE "0:"
    INDEX 01 02:08:23
  TRACK 76 AUDIO
    TITLE "3:cjc039_1758"
    INDEX 01 02:08:72
  TRACK 77 AUDIO
    TITLE "0:"
    INDEX 01 02:12:05
  TRACK 78 AUDIO
    TITLE "2:cjc039_1759"
    INDEX 01 02:13:54
  TRACK 79 AUDIO
    TITLE "0:"
    INDEX 01 02:14:71
  TRACK 80 AUDIO
    TITLE "3:cjc039_1760"
    INDEX 01 02:15:45
  TRACK 81 AUDIO
    TITLE "0:"
    INDEX 01 02:19:44
